<?xml version="1.0" standalone="no"?>
<!DOCTYPE svg PUBLIC "-//W3C//DTD SVG 20010904//EN"
 "http://www.w3.org/TR/2001/REC-SVG-20010904/DTD/svg10.dtd">
<svg version="1.0" xmlns="http://www.w3.org/2000/svg"
 width="512.000000pt" height="512.000000pt" viewBox="0 0 512.000000 512.000000"
 preserveAspectRatio="xMidYMid meet">
<metadata>
Created by potrace 1.11, written by Peter Selinger 2001-2013
</metadata>
<g transform="translate(0.000000,512.000000) scale(0.100000,-0.100000)"
fill="#000000" stroke="none">
<path d="M2430 4860 l0 -130 -65 0 -65 0 0 -60 0 -60 -125 0 -125 0 0 -65 0
-65 -130 0 -130 0 0 -65 0 -65 -195 0 -195 0 0 -59 0 -59 -114 -7 c-63 -4
-120 -4 -125 0 -6 3 -11 33 -11 66 l0 59 -125 0 -125 0 0 -130 0 -130 60 0 60
0 0 -60 0 -60 65 0 65 0 0 -65 0 -65 130 0 130 0 -2 -382 -3 -383 -62 -3 -63
-3 0 -64 0 -65 -65 0 -65 0 0 -60 0 -60 -190 0 -190 0 0 60 0 60 -130 0 -131
0 3 -127 3 -128 63 -3 62 -3 0 -59 0 -60 65 0 65 0 0 -65 0 -65 125 0 125 0 0
-380 0 -380 -60 0 -60 0 0 -65 0 -64 -67 -3 -68 -3 -3 -62 -3 -63 -189 0 -190
0 0 60 0 60 -125 0 -125 0 0 -125 0 -125 60 0 60 0 0 -65 0 -65 65 0 64 0 3
-62 3 -63 128 -3 127 -3 0 -444 0 -445 1920 0 1920 0 0 445 0 444 128 3 127 3
3 62 3 62 62 3 62 3 3 63 3 62 59 0 60 0 0 125 0 125 -125 0 -125 0 0 -60 0
-60 -190 0 -189 0 -3 63 -3 62 -67 3 -68 3 0 64 0 65 -60 0 -60 0 0 380 0 380
125 0 125 0 0 65 0 65 65 0 65 0 0 65 0 65 65 0 65 0 0 125 0 125 -130 0 -130
0 0 -60 0 -60 -190 0 -190 0 0 60 0 60 -65 0 -65 0 0 65 0 65 -65 0 -65 0 0
385 0 385 130 0 130 0 0 65 0 65 65 0 65 0 0 60 0 60 60 0 60 0 0 130 0 130
-125 0 -125 0 0 -59 c0 -33 -5 -63 -10 -66 -6 -4 -65 -3 -130 0 l-120 8 0 58
0 59 -190 0 -190 0 0 65 0 65 -130 0 -130 0 0 65 0 65 -125 0 -125 0 0 60 0
60 -65 0 -65 0 0 130 0 130 -130 0 -130 0 0 -130z m258 -317 l3 -63 124 0 125
0 0 -65 0 -65 130 0 130 0 0 -65 0 -65 190 0 189 0 3 -62 3 -63 128 -3 127 -3
0 -59 0 -60 -1280 0 -1280 0 0 60 0 59 128 3 127 3 3 63 3 62 189 0 190 0 0
65 0 65 130 0 130 0 0 65 0 65 125 0 125 0 0 58 c0 32 3 62 7 66 4 3 61 5 127
4 l121 -3 3 -62z m892 -1023 l0 -320 -1020 0 -1020 0 0 320 0 320 1020 0 1020
0 0 -320z m2 -512 l3 -63 63 -3 62 -3 0 -64 0 -65 65 0 65 0 0 -60 0 -60 93 0
c50 0 136 -3 190 -7 l97 -6 0 -59 0 -58 -1660 0 -1660 0 0 58 0 59 98 6 c53 4
139 7 190 7 l92 0 0 60 0 60 65 0 65 0 0 65 0 64 63 3 62 3 3 63 3 62 1019 0
1019 0 3 -62z m388 -898 l0 -320 -1410 0 -1410 0 0 320 0 320 1410 0 1410 0 0
-320z m0 -510 l0 -60 60 0 60 0 0 -65 0 -64 68 -3 67 -3 3 -62 3 -63 184 0
185 0 0 -60 0 -60 -2045 0 -2045 0 0 60 0 60 190 0 189 0 3 63 3 62 68 3 67 3
0 64 0 65 60 0 60 0 0 60 0 60 1410 0 1410 0 0 -60z m380 -960 l0 -380 -575 0
-575 0 0 255 0 255 -640 0 -640 0 0 -255 0 -255 -575 0 -575 0 0 380 0 380
1790 0 1790 0 0 -380z m-1280 -190 l0 -190 -510 0 -510 0 0 190 0 190 510 0
510 0 0 -190z"/>
</g>
</svg>
